PERFORMER "Tiësto"
TITLE "Essential Mix (2005-08-07) (Live at Amnesia, Ibiza)"
FILE "01-Tiesto-Live_at_Club_Amnesia_(Ibiza-Spain)-SAT-07-08-2005-TWCLIVE.mp3" MP3
  TRACK 01 AUDIO
    PERFORMER "Essential Mix"
    TITLE "Intro"
    INDEX 01 00:00:00
  TRACK 02 AUDIO
    PERFORMER "Kosmos Epsilon"
    TITLE "Innocent Thoughts (Stel Remix)"
    INDEX 01 01:22:74
  TRACK 03 AUDIO
    PERFORMER "Ijojs"
    TITLE "Physical Overdrive"
    INDEX 01 03:58:57
  TRACK 04 AUDIO
    PERFORMER "Hammer & Funabashi"
    TITLE "Moments"
    INDEX 01 10:26:72
  TRACK 05 AUDIO
    PERFORMER "Deepsky feat. Jes Brieden"
    TITLE "Ghost (Filo & Peri Remix)"
    INDEX 01 18:42:72
  TRACK 06 AUDIO
    PERFORMER "Lucas & Beltram"
    TITLE "Trust Me"
    INDEX 01 23:08:14
  TRACK 07 AUDIO
    PERFORMER "Sonorous"
    TITLE "Protonic (Leama & Moor Remix)"
    INDEX 01 28:56:64
  TRACK 08 AUDIO
    PERFORMER "The Drill"
    TITLE "The Drill (Tom Novy Remix)"
    INDEX 01 35:51:00
  TRACK 09 AUDIO
    PERFORMER "Dave Lambert"
    TITLE "Yeah"
    INDEX 01 40:09:72
  TRACK 10 AUDIO
    PERFORMER "Rachel Starr"
    TITLE "Till There Was You (Gabriel & Dresden's 12 Step Mix)"
    INDEX 01 46:01:05
  TRACK 11 AUDIO
    PERFORMER "Coldplay"
    TITLE "White Shadows (DJ Preach Bootleg)"
    INDEX 01 53:32:74
  TRACK 12 AUDIO
    PERFORMER "Scott Mac"
    TITLE "Damager (Mac Zimms Remix)"
    INDEX 01 59:02:69
  TRACK 13 AUDIO
    PERFORMER "ID"
    TITLE "ID"
    INDEX 01 64:03:00
  TRACK 14 AUDIO
    PERFORMER "DJ Precision vs. Terry Bones"
    TITLE "Another Situation"
    INDEX 01 68:08:15
  TRACK 15 AUDIO
    PERFORMER "Allure"
    TITLE "The Loves We Lost"
    INDEX 01 73:07:09
  TRACK 16 AUDIO
    PERFORMER "ID"
    TITLE "ID"
    INDEX 01 80:55:34
  TRACK 17 AUDIO
    PERFORMER "ID"
    TITLE "ID"
    INDEX 01 87:03:00
  TRACK 18 AUDIO
    PERFORMER "Airbiscuit"
    TITLE "Lately (Riley & Durrant Remix)"
    INDEX 01 96:48:71
  TRACK 19 AUDIO
    PERFORMER "ID"
    TITLE "ID"
    INDEX 01 103:09:00
  TRACK 20 AUDIO
    PERFORMER "Tiesto"
    TITLE "Lethal Industry (TIC Edit)"
    INDEX 01 107:47:00
  TRACK 21 AUDIO
    PERFORMER "Bart Claessen"
    TITLE "Playmo"
    INDEX 01 115:32:74